<?xml version="1.0" standalone="no"?>
        <!DOCTYPE svg PUBLIC "-//W3C//DTD SVG 1.1//EN" 
        "http://www.w3.org/Graphics/SVG/1.1/DTD/svg11.dtd"><svg id="changeColor" fill="#DC7633" xmlns="http://www.w3.org/2000/svg" xmlns:xlink="http://www.w3.org/1999/xlink" width="200" zoomAndPan="magnify" viewBox="0 0 375 374.9999" height="200" preserveAspectRatio="xMidYMid meet" version="1.0"><defs><path id="pathAttribute" d="M 21.179688 93.726562 L 354.179688 93.726562 L 354.179688 296.226562 L 21.179688 296.226562 Z M 21.179688 93.726562 "></path></defs><g><path id="pathAttribute" d="M 327.597656 106.449219 C 335.191406 106.449219 341.429688 112.675781 341.429688 120.257812 L 341.429688 269.691406 C 341.429688 277.273438 335.191406 283.5 327.597656 283.5 L 47.757812 283.5 C 40.164062 283.5 33.929688 277.273438 33.929688 269.691406 L 33.929688 120.257812 C 33.929688 112.675781 40.164062 106.449219 47.757812 106.449219 L 327.597656 106.449219 M 327.597656 93.726562 L 47.757812 93.726562 C 33.113281 93.726562 21.183594 105.636719 21.183594 120.257812 L 21.183594 269.691406 C 21.183594 284.3125 33.113281 296.226562 47.757812 296.226562 L 327.597656 296.226562 C 342.242188 296.226562 354.171875 284.3125 354.171875 269.691406 L 354.171875 120.257812 C 354.171875 105.636719 342.242188 93.726562 327.597656 93.726562 " fill-opacity="1" fill-rule="nonzero"></path></g><g id="inner-icon" transform="translate(85, 90)"> <svg role="img" viewBox="0 0 24 24" xmlns="http://www.w3.org/2000/svg" id="IconChangeColor" height="199.8" width="199.8"><title>Coding Ninjas</title><path d="M23.198 0c-.499.264-1.209.675-1.79.984a542.82 542.82 0 000 6.242c.995-.526 1.761-.834 1.79-2.066V0zM8.743.181C7.298.144 5.613.65 4.47 1.414c-1.17.8-1.987 1.869-2.572 3.179A16.787 16.787 0 00.9 8.87c-.15 1.483-.128 3.079.025 4.677.27 1.855.601 3.724 1.616 5.456 1.57 2.62 4.313 4.109 7.262 4.19 3.41.246 7.233.53 11.411.807.022-2.005.01-5.418 0-6.25-3.206-.21-7.398-.524-11.047-.782-.443-.043-.896-.056-1.324-.172-1.086-.295-1.806-.802-2.374-1.757-.643-1.107-.875-2.832-.797-4.294.11-1.27.287-2.41 1.244-3.44.669-.56 1.307-.758 2.161-.84 5.17.345 7.609.53 12.137.858.032-1.133.01-3.46 0-6.229C16.561.752 12.776.474 8.743.181zm-.281 9.7c.174.675.338 1.305.729 1.903.537.832 1.375 1.127 2.388.877.76-.196 1.581-.645 2.35-1.282zm12.974 1.04l-5.447.689c.799.739 1.552 1.368 2.548 1.703.988.319 1.78.01 2.308-.777.209-.329.56-1.148.591-1.614zm.842 6.461c-.388.01-.665.198-.87.355.002 1.798 0 4.127 0 6.223.586-.297 1.135-.644 1.793-.998-.005-1.454.002-3.137-.005-4.707a.904.904 0 00-.917-.873z" id="mainIconPathAttribute"></path></svg> </g></svg>